<svg width="500" height="501" viewBox="0 0 500 501" fill="none" xmlns="http://www.w3.org/2000/svg">
<g clip-path="url(#clip0_11692_82)">
<path d="M250 500.656C388.071 500.656 500 388.727 500 250.656C500 112.585 388.071 0.65625 250 0.65625C111.929 0.65625 0 112.585 0 250.656C0 388.727 111.929 500.656 250 500.656Z" fill="#5902CA"/>
<path d="M378.606 289.266H412.806L323.746 150.796L392.386 82.1562H331.606L256.006 157.746V82.1562H213.016V289.266H256.006V218.536L271.296 203.246L326.456 289.266H360.656L291.316 183.226L303.726 170.816L378.606 289.266Z" fill="#FCFBFF"/>
<path d="M222.057 385.589C166.317 385.589 120.757 340.039 120.757 284.289C120.757 244.729 143.538 209.959 177.098 193.779V157.219C124.948 175.799 87.1875 225.549 87.1875 284.289C87.1875 358.619 147.727 419.159 222.057 419.159C280.798 419.159 330.548 381.399 349.128 329.249H312.568C296.388 362.819 261.617 385.589 222.057 385.589Z" fill="#FCFBFF"/>
</g>
<defs>
<clipPath id="clip0_11692_82">
<rect width="500" height="500" fill="white" transform="translate(0 0.65625)"/>
</clipPath>
</defs>
</svg>
