<svg width="500" height="501" viewBox="0 0 500 501" fill="none" xmlns="http://www.w3.org/2000/svg">
<g clip-path="url(#clip0_11692_57)">
<path d="M250 500.656C388.071 500.656 500 388.727 500 250.656C500 112.585 388.071 0.65625 250 0.65625C111.929 0.65625 0 112.585 0 250.656C0 388.727 111.929 500.656 250 500.656Z" fill="#23CC00"/>
<path d="M226.542 385.667C170.802 385.667 125.242 340.117 125.242 284.367C125.242 244.807 148.022 210.037 181.582 193.857V157.297C129.432 175.877 91.6719 225.627 91.6719 284.367C91.6719 358.697 152.212 419.237 226.542 419.237C285.282 419.237 335.032 381.477 353.612 329.327H317.052C300.872 362.897 266.102 385.667 226.542 385.667Z" fill="#FFEF43"/>
<path d="M233.38 212.119H235.74C239.88 212.119 244.61 211.529 248.15 211.529L272.97 285.999H305.48L272.38 203.839C287.75 195.569 298.98 176.649 298.98 153.009C298.98 118.139 277.11 99.2188 235.15 99.2188H203.82V285.989H233.37V212.109L233.38 212.119ZM233.38 124.639H238.11C259.98 124.639 269.44 134.099 269.44 155.969C269.44 177.839 259.98 187.299 238.11 187.299H233.38V124.649V124.639Z" fill="#FFEF43"/>
<path d="M371.683 180.786L377.593 129.366C384.683 131.136 392.373 134.686 400.053 140.006V110.456C394.143 106.906 387.643 104.546 381.143 103.366L384.103 82.0859H364.003L362.233 102.186C333.863 104.546 316.133 125.236 316.133 153.606C316.133 181.976 332.683 197.346 351.003 204.436L345.093 254.676C336.823 252.316 327.363 248.176 316.723 241.676V271.816C324.993 275.956 333.273 279.496 340.953 281.276L337.993 303.146H358.093L360.453 283.046C388.823 281.276 408.333 259.406 408.333 230.446C408.333 208.576 397.693 190.256 371.683 180.796V180.786ZM355.723 175.466C346.263 170.736 342.133 163.056 342.133 152.416C342.133 138.226 348.633 129.366 361.633 127.596L355.723 175.476V175.466ZM361.043 257.036L366.953 209.156C376.413 213.886 382.323 220.976 382.323 232.206C382.323 245.796 375.233 255.846 361.043 257.026V257.036Z" fill="#FFEF43"/>
</g>
<defs>
<clipPath id="clip0_11692_57">
<rect width="500" height="500" fill="white" transform="translate(0 0.65625)"/>
</clipPath>
</defs>
</svg>
