<svg width="500" height="501" viewBox="0 0 500 501" fill="none" xmlns="http://www.w3.org/2000/svg">
<g clip-path="url(#clip0_11692_63)">
<path d="M250 500.656C388.071 500.656 500 388.727 500 250.656C500 112.585 388.071 0.65625 250 0.65625C111.929 0.65625 0 112.585 0 250.656C0 388.727 111.929 500.656 250 500.656Z" fill="#23CC00"/>
<path d="M249.097 419.39C307.837 419.39 357.587 381.63 376.167 329.48H339.607C323.427 363.05 288.657 385.82 249.097 385.82C193.357 385.82 147.797 340.27 147.797 284.52C147.797 244.96 170.577 210.19 204.137 194.01V157.45C151.987 176.03 114.227 225.78 114.227 284.52C114.227 358.85 174.767 419.39 249.097 419.39ZM326.417 254.56V205.41C343.197 209.61 356.387 215 356.387 229.39C356.387 242.58 344.997 252.17 326.417 254.56ZM303.647 300.11H327.627V281.53C362.987 277.33 385.767 256.95 385.767 229.38C385.767 191.02 355.197 182.63 326.427 177.23V126.28C340.217 127.48 355.197 131.67 368.987 138.27V108.3C355.797 103.5 341.417 100.51 327.627 99.9097V81.9297H303.647V99.9097C267.087 104.11 246.107 124.49 246.107 150.26C246.107 189.22 276.077 198.21 304.847 203.61V254.56C287.467 252.16 268.887 244.97 247.307 233.58V265.35C265.887 274.34 285.067 280.34 303.647 281.53V300.11ZM304.847 174.84C288.067 171.24 275.477 165.25 275.477 150.26C275.477 136.47 286.267 128.08 304.847 126.28V174.83V174.84Z" fill="#FCFBFF"/>
</g>
<defs>
<clipPath id="clip0_11692_63">
<rect width="500" height="500" fill="white" transform="translate(0 0.65625)"/>
</clipPath>
</defs>
</svg>
